<?xml version="1.0" encoding="UTF-8"?><svg id="Layer_1" xmlns="http://www.w3.org/2000/svg" viewBox="0 0 71.09 90.82"><path d="M39.02,2h-14.71c-.38,0-.73.13-1.02.33-.5.31-.84.86-.84,1.5v81.48h-6.26V3.83c0-.97-.79-1.76-1.76-1.76H4.76c-.97,0-1.76.79-1.76,1.76v83.16c0,.92.67,1.74,1.58,1.82,1.05.1,1.93-.72,1.93-1.75V5.58h6.15v81.48c0,.97.79,1.76,1.76,1.76h9.77c.97,0,1.76-.79,1.76-1.76V6.84c0-.73.59-1.33,1.33-1.33h11.74c15.46,0,27.56,12.35,27.56,28.11s-12.11,28.11-27.56,28.11h-3.41v-5.3h1.57c12.49,0,22.68-10.03,22.86-22.42.19-12.76-10.47-23.2-23.23-23.2h-2.96c-.97,0-1.76.79-1.76,1.76v9.26c0,.64.34,1.19.85,1.5.31.26.7.43,1.13.43h1.75c5.14,0,9.52,3.99,9.72,9.13.2,5.4-4.13,9.86-9.48,9.86h-2.13c-.92,0-1.74.67-1.82,1.58-.1,1.05.72,1.93,1.75,1.93h1.93c7.08,0,13.07-5.54,13.28-12.61s-5.7-13.4-13-13.4h-.45v-5.91h1.22c10.79,0,19.85,8.83,19.7,19.62-.15,10.48-8.77,18.97-19.35,18.97h-3.33c-.97,0-1.76.79-1.76,1.76v8.82c0,.97.79,1.76,1.76,1.76h5.16c17.43,0,31.08-13.89,31.08-31.63S56.44,2,39.02,2Z" fill="#00b6ef" stroke-width="0"/></svg>